0
SECTION
2
HEADER
9
$INSUNITS
70
4
9
$ACADVER
1
AC1014
9
$HANDSEED
5
FFFF
0
ENDSEC
0
SECTION
2
TABLES
0
TABLE
2
VPORT
5
8
100
AcDbSymbolTable
0
ENDTAB
0
TABLE
2
LTYPE
5
5
100
AcDbSymbolTable
0
LTYPE
5
14
100
AcDbSymbolTableRecord
100
AcDbLinetypeTableRecord
2
BYBLOCK
70
0
0
LTYPE
5
15
100
AcDbSymbolTableRecord
100
AcDbLinetypeTableRecord
2
BYLAYER
70
0
0
ENDTAB
0
TABLE
2
LAYER
5
2
100
AcDbSymbolTable
70
2
0
LAYER
5
50
100
AcDbSymbolTableRecord
100
AcDbLayerTableRecord
2
0
70
0
6
CONTINUOUS
0
ENDTAB
0
TABLE
2
STYLE
5
3
100
AcDbSymbolTable
70
1
0
STYLE
5
11
100
AcDbSymbolTableRecord
100
AcDbTextStyleTableRecord
2
STANDARD
70
0
0
ENDTAB
0
TABLE
2
VIEW
5
6
100
AcDbSymbolTable
70
0
0
ENDTAB
0
TABLE
2
UCS
5
7
100
AcDbSymbolTable
70
0
0
ENDTAB
0
TABLE
2
APPID
5
9
100
AcDbSymbolTable
70
2
0
APPID
5
12
100
AcDbSymbolTableRecord
100
AcDbRegAppTableRecord
2
ACAD
70
0
0
ENDTAB
0
TABLE
2
DIMSTYLE
5
A
100
AcDbSymbolTable
70
1
0
ENDTAB
0
TABLE
2
BLOCK_RECORD
5
1
100
AcDbSymbolTable
70
1
0
BLOCK_RECORD
5
1F
100
AcDbSymbolTableRecord
100
AcDbBlockTableRecord
2
*MODEL_SPACE
0
BLOCK_RECORD
5
1B
100
AcDbSymbolTableRecord
100
AcDbBlockTableRecord
2
*PAPER_SPACE
0
ENDTAB
0
ENDSEC
0
SECTION
2
BLOCKS
0
BLOCK
5
20
100
AcDbEntity
100
AcDbBlockBegin
2
*MODEL_SPACE
0
ENDBLK
5
21
100
AcDbEntity
100
AcDbBlockEnd
0
BLOCK
5
1C
100
AcDbEntity
100
AcDbBlockBegin
2
*PAPER_SPACE
0
ENDBLK
5
1D
100
AcDbEntity
100
AcDbBlockEnd
0
ENDSEC
0
SECTION
2
ENTITIES
0
LWPOLYLINE
5
100
100
AcDbEntity
8
0
100
AcDbPolyline
90
4
70
1
43
0.0
10
-50.862594451757175
20
101.03956447896964
10
-50.862594451757175
20
91.039564478969638
10
-47.765734996648533
20
91.039564478969638
10
-47.765734996648533
20
101.03956447896964
0
LWPOLYLINE
5
101
100
AcDbEntity
8
0
100
AcDbPolyline
90
12
70
1
43
0.0
10
-33.140905704351155
20
95.275580752468144
10
-28.331902828069424
20
95.275580752468144
10
-28.331902828069424
20
97.315144408321444
10
-33.140905704351155
20
97.315144408321444
10
-33.140905704351155
20
98.904502857303697
10
-27.956732120366787
20
98.904502857303697
10
-27.956732120366787
20
101.03956447896964
10
-36.237767543645603
20
101.03956447896964
10
-36.237767543645603
20
91.039564478969638
10
-27.8066619299371
20
91.039564478969638
10
-27.8066619299371
20
93.304229844188768
10
-33.140905704351155
20
93.304229844188768
0
LWPOLYLINE
5
102
100
AcDbEntity
8
0
100
AcDbPolyline
90
6
70
1
43
0.0
10
-45.548814143987386
20
91.039564478969638
10
-37.636125888677327
20
91.039564478969638
10
-37.636125888677327
20
93.502046931362216
10
-42.458771076055264
20
93.502046931362216
10
-42.458771076055264
20
101.03956447896964
10
-45.548814143987386
20
101.03956447896964
0
SPLINE
5
103
100
AcDbEntity
8
0
100
AcDbSpline
70
0
71
2
72
6
73
3
74
0
42
0.000000001
43
0.0000000001
44
0.0000000001
40
0
40
0
40
0
40
1
40
1
40
1
10
-12.77276357636044
20
96.827423441982319
30
0
10
-13.12768300995419
20
96.223739255046922
30
0
10
-13.748744335027432
20
95.848568547344286
30
0
0
LINE
5
104
100
AcDbEntity
8
0
100
AcDbLine
10
-18.338716831060147
20
91.039564478969638
30
0
11
-21.442402210088467
21
91.039564478969638
31
0
0
LINE
5
105
100
AcDbEntity
8
0
100
AcDbLine
10
-18.338716831060147
20
96.987722981548373
30
0
11
-17.035854663701748
21
96.987722981548373
31
0
0
SPLINE
5
106
100
AcDbEntity
8
0
100
AcDbSpline
70
0
71
2
72
6
73
3
74
0
42
0.000000001
43
0.0000000001
44
0.0000000001
40
0
40
0
40
0
40
1
40
1
40
1
10
-14.833963718267178
20
95.452934372997348
30
0
10
-14.281867351384854
20
95.268546212291781
30
0
10
-14.029587116094326
20
95.084265339946811
30
0
0
LINE
5
107
100
AcDbEntity
8
0
100
AcDbLine
10
-11.606114711614346
20
91.039564478969638
30
0
11
-15.097649898381924
21
91.039564478969638
31
0
0
LINE
5
108
100
AcDbEntity
8
0
100
AcDbLine
10
-13.102529849858975
20
93.937224019146043
30
0
11
-11.606114711614346
21
91.039564478969638
31
0
0
SPLINE
5
109
100
AcDbEntity
8
0
100
AcDbSpline
70
0
71
2
72
6
73
3
74
0
42
0.000000001
43
0.0000000001
44
0.0000000001
40
0
40
0
40
0
40
1
40
1
40
1
10
-16.749361362310147
20
94.095499384975497
30
0
10
-17.063139285894131
20
94.688950646495883
30
0
10
-17.308705653997158
20
94.866304267025072
30
0
0
LINE
5
110
100
AcDbEntity
8
0
100
AcDbLine
10
-15.097649898381924
20
91.039564478969638
30
0
11
-16.749361362310147
21
94.095499384975497
31
0
0
LINE
5
111
100
AcDbEntity
8
0
100
AcDbLine
10
-21.442402210088467
20
91.039564478969638
30
0
11
-21.442402210088467
21
101.03956447896964
31
0
0
SPLINE
5
112
100
AcDbEntity
8
0
100
AcDbSpline
70
0
71
2
72
6
73
3
74
0
42
0.000000001
43
0.0000000001
44
0.0000000001
40
0
40
0
40
0
40
1
40
1
40
1
10
-12.881692256780362
20
99.883357155895297
30
0
10
-12.41784414276669
20
99.218281972980563
30
0
10
-12.41784414276669
20
98.263302314853732
30
0
0
SPLINE
5
113
100
AcDbEntity
8
0
100
AcDbSpline
70
0
71
2
72
6
73
3
74
0
42
0.000000001
43
0.0000000001
44
0.0000000001
40
0
40
0
40
0
40
1
40
1
40
1
10
-14.102700557561612
20
100.7939981108666
30
0
10
-13.345540370794033
20
100.54843233881004
30
0
10
-12.881692256780362
20
99.883357155895297
30
0
0
SPLINE
5
114
100
AcDbEntity
8
0
100
AcDbSpline
70
0
71
2
72
6
73
3
74
0
42
0.000000001
43
0.0000000001
44
0.0000000001
40
0
40
0
40
0
40
1
40
1
40
1
10
-12.41784414276669
20
98.263302314853732
30
0
10
-12.41784414276669
20
97.431106436824862
30
0
10
-12.77276357636044
20
96.827423441982319
30
0
0
SPLINE
5
115
100
AcDbEntity
8
0
100
AcDbSpline
70
0
71
2
72
6
73
3
74
0
42
0.000000001
43
0.0000000001
44
0.0000000001
40
0
40
0
40
0
40
1
40
1
40
1
10
-13.748744335027432
20
95.848568547344286
30
0
10
-14.144590701909756
20
95.609823334789354
30
0
10
-14.833963718267178
20
95.452934372997348
30
0
0
SPLINE
5
116
100
AcDbEntity
8
0
100
AcDbSpline
70
0
71
2
72
6
73
3
74
0
42
0.000000001
43
0.0000000001
44
0.0000000001
40
0
40
0
40
0
40
1
40
1
40
1
10
-14.029587116094326
20
95.084265339946811
30
0
10
-13.859160747380947
20
94.961376059627597
30
0
10
-13.535364475103115
20
94.558546412563402
30
0
0
SPLINE
5
117
100
AcDbEntity
8
0
100
AcDbSpline
70
0
71
2
72
6
73
3
74
0
42
0.000000001
43
0.0000000001
44
0.0000000001
40
0
40
0
40
0
40
1
40
1
40
1
10
-13.535364475103115
20
94.558546412563402
30
0
10
-13.211568202825283
20
94.155717957592088
30
0
10
-13.102529849858975
20
93.937224019146043
30
0
0
LINE
5
118
100
AcDbEntity
8
0
100
AcDbLine
10
-16.981285419316983
20
99.020464885807101
30
0
11
-18.338716831060147
21
99.020464885807101
31
0
0
SPLINE
5
119
100
AcDbEntity
8
0
100
AcDbSpline
70
0
71
2
72
6
73
3
74
0
42
0.000000001
43
0.0000000001
44
0.0000000001
40
0
40
0
40
0
40
1
40
1
40
1
10
-0.88305791840145542
20
96.114598382091586
30
0
10
-0.88305791840145542
20
94.361529219722811
30
0
10
-1.4730962179620022
20
93.239427674388963
30
0
0
LINE
5
120
100
AcDbEntity
8
0
100
AcDbLine
10
-18.338716831060147
20
99.020464885807101
30
0
11
-18.338716831060147
21
96.987722981548373
31
0
0
SPLINE
5
121
100
AcDbEntity
8
0
100
AcDbSpline
70
0
71
2
72
6
73
3
74
0
42
0.000000001
43
0.0000000001
44
0.0000000001
40
0
40
0
40
0
40
1
40
1
40
1
10
-1.4730962179620022
20
93.239427674388963
30
0
10
-2.0631440542657127
20
92.117327321147982
30
0
10
-3.1784184835870022
20
91.493179667568285
30
0
0
LINE
5
122
100
AcDbEntity
8
0
100
AcDbLine
10
-18.338716831060147
20
95.098227131938998
30
0
11
-18.338716831060147
21
91.039564478969638
31
0
0
SPLINE
5
123
100
AcDbEntity
8
0
100
AcDbSpline
70
0
71
2
72
6
73
3
74
0
42
0.000000001
43
0.0000000001
44
0.0000000001
40
0
40
0
40
0
40
1
40
1
40
1
10
-15.715936031194424
20
97.437927592372958
30
0
10
-15.52152952179501
20
97.690315116024081
30
0
10
-15.52152952179501
20
98.017736542797167
30
0
0
SPLINE
5
124
100
AcDbEntity
8
0
100
AcDbSpline
70
0
71
2
72
6
73
3
74
0
42
0.000000001
43
0.0000000001
44
0.0000000001
40
0
40
0
40
0
40
1
40
1
40
1
10
-6.0808785818536037
20
101.21009575185782
30
0
10
-3.5842831991631741
20
101.21009575185782
30
0
10
-2.2336705587823147
20
99.869714248752643
30
0
0
SPLINE
5
125
100
AcDbEntity
8
0
100
AcDbSpline
70
0
71
2
72
6
73
3
74
0
42
0.000000001
43
0.0000000001
44
0.0000000001
40
0
40
0
40
0
40
1
40
1
40
1
10
-15.82848867401669
20
98.761256206607882
30
0
10
-16.135443057866787
20
99.020464885807101
30
0
10
-16.981285419316983
20
99.020464885807101
30
0
0
SPLINE
5
126
100
AcDbEntity
8
0
100
AcDbSpline
70
0
71
2
72
6
73
3
74
0
42
0.000000001
43
0.0000000001
44
0.0000000001
40
0
40
0
40
0
40
1
40
1
40
1
10
-17.308705653997158
20
94.866304267025072
30
0
10
-17.642949428411217
20
95.098227131938998
30
0
10
-18.065865840764733
20
95.098227131938998
30
0
0
LINE
5
127
100
AcDbEntity
8
0
100
AcDbLine
10
-18.065865840764733
20
95.098227131938998
30
0
11
-18.338716831060147
21
95.098227131938998
31
0
0
SPLINE
5
128
100
AcDbEntity
8
0
100
AcDbSpline
70
0
71
2
72
6
73
3
74
0
42
0.000000001
43
0.0000000001
44
0.0000000001
40
0
40
0
40
0
40
1
40
1
40
1
10
-2.2336705587823147
20
99.869714248752643
30
0
10
-0.88305791840145542
20
98.529332149601046
30
0
10
-0.88305791840145542
20
96.114598382091586
30
0
0
SPLINE
5
129
100
AcDbEntity
8
0
100
AcDbSpline
70
0
71
2
72
6
73
3
74
0
42
0.000000001
43
0.0000000001
44
0.0000000001
40
0
40
0
40
0
40
1
40
1
40
1
10
-9.8803265951592678
20
99.845839608287875
30
0
10
-8.5160764120537991
20
101.21009575185782
30
0
10
-6.0808785818536037
20
101.21009575185782
30
0
0
SPLINE
5
130
100
AcDbEntity
8
0
100
AcDbSpline
70
0
71
2
72
6
73
3
74
0
42
0.000000001
43
0.0000000001
44
0.0000000001
40
0
40
0
40
0
40
1
40
1
40
1
10
-17.035854663701748
20
96.987722981548373
30
0
10
-16.824391689153408
20
96.987722981548373
30
0
10
-16.217301692815518
20
97.124148476696092
30
0
0
SPLINE
5
131
100
AcDbEntity
8
0
100
AcDbSpline
70
0
71
2
72
6
73
3
74
0
42
0.000000001
43
0.0000000001
44
0.0000000001
40
0
40
0
40
0
40
1
40
1
40
1
10
-11.244586315007901
20
96.032742131328646
30
0
10
-11.244586315007901
20
98.481582868671495
30
0
10
-9.8803265951592678
20
99.845839608287875
30
0
0
SPLINE
5
132
100
AcDbEntity
8
0
100
AcDbSpline
70
0
71
2
72
6
73
3
74
0
42
0.000000001
43
0.0000000001
44
0.0000000001
40
0
40
0
40
0
40
1
40
1
40
1
10
-15.52152952179501
20
98.017736542797167
30
0
10
-15.52152952179501
20
98.502047527408664
30
0
10
-15.82848867401669
20
98.761256206607882
30
0
0
SPLINE
5
133
100
AcDbEntity
8
0
100
AcDbSpline
70
0
71
2
72
6
73
3
74
0
42
0.000000001
43
0.0000000001
44
0.0000000001
40
0
40
0
40
0
40
1
40
1
40
1
10
-16.217301692815518
20
97.124148476696092
30
0
10
-15.910342540593838
20
97.185540068721849
30
0
10
-15.715936031194424
20
97.437927592372958
30
0
0
SPLINE
5
134
100
AcDbEntity
8
0
100
AcDbSpline
70
0
71
2
72
6
73
3
74
0
42
0.000000001
43
0.0000000001
44
0.0000000001
40
0
40
0
40
0
40
1
40
1
40
1
10
-3.9730962179620022
20
96.155526507473056
30
0
10
-3.9730962179620022
20
97.567531931972567
30
0
10
-4.542678203435635
20
98.218963611698214
30
0
0
SPLINE
5
135
100
AcDbEntity
8
0
100
AcDbSpline
70
0
71
2
72
6
73
3
74
0
42
0.000000001
43
0.0000000001
44
0.0000000001
40
0
40
0
40
0
40
1
40
1
40
1
10
-6.0876973532159084
20
98.870396483516771
30
0
10
-7.0222123526055569
20
98.870396483516771
30
0
10
-7.5883801840264553
20
98.208731878376085
30
0
0
SPLINE
5
136
100
AcDbEntity
8
0
100
AcDbSpline
70
0
71
2
72
6
73
3
74
0
42
0.000000001
43
0.0000000001
44
0.0000000001
40
0
40
0
40
0
40
1
40
1
40
1
10
-4.542678203435635
20
98.218963611698214
30
0
10
-5.1122506521661037
20
98.870396483516771
30
0
10
-6.0876973532159084
20
98.870396483516771
30
0
0
SPLINE
5
137
100
AcDbEntity
8
0
100
AcDbSpline
70
0
71
2
72
6
73
3
74
0
42
0.000000001
43
0.0000000001
44
0.0000000001
40
0
40
0
40
0
40
1
40
1
40
1
10
9.5671526528876072
20
98.549796212291781
30
0
10
9.5671526528876072
20
97.663030493831698
30
0
10
9.0146319009344822
20
97.028651106929843
30
0
0
SPLINE
5
138
100
AcDbEntity
8
0
100
AcDbSpline
70
0
71
2
72
6
73
3
74
0
42
0.000000001
43
0.0000000001
44
0.0000000001
40
0
40
0
40
0
40
1
40
1
40
1
10
6.5726057626288181
20
101.03956447896964
30
0
10
8.0187193490545976
20
101.03956447896964
30
0
10
8.7929407693426853
20
100.32333003339774
30
0
0
SPLINE
5
139
100
AcDbEntity
8
0
100
AcDbSpline
70
0
71
2
72
6
73
3
74
0
42
0.000000001
43
0.0000000001
44
0.0000000001
40
0
40
0
40
0
40
1
40
1
40
1
10
5.2492777444403416
20
97.117327321147982
30
0
10
5.9723345376532322
20
97.117327321147982
30
0
10
6.2554232217352643
20
97.366304267025072
30
0
0
LINE
5
140
100
AcDbEntity
8
0
100
AcDbLine
10
0.7881609536688573
20
91.039564478969638
30
0
11
0.7881609536688573
21
101.03956447896964
31
0
0
LINE
5
141
100
AcDbEntity
8
0
100
AcDbLine
10
6.1224047280829197
20
91.039564478969638
30
0
11
0.7881609536688573
21
91.039564478969638
31
0
0
LINE
5
142
100
AcDbEntity
8
0
100
AcDbLine
10
5.2697435952704197
20
99.013643730259005
30
0
11
3.9054838754217869
21
99.013643730259005
31
0
0
LINE
5
143
100
AcDbEntity
8
0
100
AcDbLine
10
3.9054838754217869
20
99.013643730259005
30
0
11
3.9054838754217869
21
97.117327321147982
31
0
0
SPLINE
5
144
100
AcDbEntity
8
0
100
AcDbSpline
70
0
71
2
72
6
73
3
74
0
42
0.000000001
43
0.0000000001
44
0.0000000001
40
0
40
0
40
0
40
1
40
1
40
1
10
-7.5883801840264553
20
98.208731878376085
30
0
10
-8.1545384787041897
20
97.547067273235385
30
0
10
-8.1545384787041897
20
96.019099820232441
30
0
0
SPLINE
5
145
100
AcDbEntity
8
0
100
AcDbSpline
70
0
71
2
72
6
73
3
74
0
42
0.000000001
43
0.0000000001
44
0.0000000001
40
0
40
0
40
0
40
1
40
1
40
1
10
6.6067186929266697
20
93.471351731395785
30
0
10
6.9341341592352643
20
93.75443445501331
30
0
10
6.9341341592352643
20
94.231924880123202
30
0
0
SPLINE
5
146
100
AcDbEntity
8
0
100
AcDbSpline
70
0
71
2
72
6
73
3
74
0
42
0.000000001
43
0.0000000001
44
0.0000000001
40
0
40
0
40
0
40
1
40
1
40
1
10
9.5228163339178806
20
95.469987261867587
30
0
10
10.031000766901279
20
94.839018452739779
30
0
10
10.031000766901279
20
93.884038794612962
30
0
0
SPLINE
5
147
100
AcDbEntity
8
0
100
AcDbSpline
70
0
71
2
72
6
73
3
74
0
42
0.000000001
43
0.0000000001
44
0.0000000001
40
0
40
0
40
0
40
1
40
1
40
1
10
6.2554232217352643
20
97.366304267025072
30
0
10
6.5385023690741306
20
97.615280020809237
30
0
10
6.5385023690741306
20
98.085949290371005
30
0
0
SPLINE
5
148
100
AcDbEntity
8
0
100
AcDbSpline
70
0
71
2
72
6
73
3
74
0
42
0.000000001
43
0.0000000001
44
0.0000000001
40
0
40
0
40
0
40
1
40
1
40
1
10
8.7929407693426853
20
100.32333003339774
30
0
10
9.5671526528876072
20
99.607094991779405
30
0
10
9.5671526528876072
20
98.549796212291781
30
0
0
SPLINE
5
149
100
AcDbEntity
8
0
100
AcDbSpline
70
0
71
2
72
6
73
3
74
0
42
0.000000001
43
0.0000000001
44
0.0000000001
40
0
40
0
40
0
40
1
40
1
40
1
10
10.031000766901279
20
93.884038794612962
30
0
10
10.031000766901279
20
93.106412757015292
30
0
10
9.669472370294832
20
92.485676873302523
30
0
0
SPLINE
5
150
100
AcDbEntity
8
0
100
AcDbSpline
70
0
71
2
72
6
73
3
74
0
42
0.000000001
43
0.0000000001
44
0.0000000001
40
0
40
0
40
0
40
1
40
1
40
1
10
8.6803881265204197
20
91.503411400890414
30
0
10
8.2915751077215898
20
91.278309691524584
30
0
10
7.5071207620184666
20
91.175989974117343
30
0
0
LINE
5
151
100
AcDbEntity
8
0
100
AcDbLine
10
3.9054838754217869
20
97.117327321147982
30
0
11
5.2492777444403416
21
97.117327321147982
31
0
0
LINE
5
152
100
AcDbEntity
8
0
100
AcDbLine
10
0.7881609536688573
20
101.03956447896964
30
0
11
6.5726057626288181
21
101.03956447896964
31
0
0
LINE
5
153
100
AcDbEntity
8
0
100
AcDbLine
10
3.9054838754217869
20
93.188269007778231
30
0
11
5.4812018014471775
21
93.188269007778231
31
0
0
SPLINE
5
154
100
AcDbEntity
8
0
100
AcDbSpline
70
0
71
2
72
6
73
3
74
0
42
0.000000001
43
0.0000000001
44
0.0000000001
40
0
40
0
40
0
40
1
40
1
40
1
10
6.5385023690741306
20
98.085949290371005
30
0
10
6.5385023690741306
20
98.522511590099413
30
0
10
6.2554232217352643
20
98.768077362155964
30
0
0
SPLINE
5
155
100
AcDbEntity
8
0
100
AcDbSpline
70
0
71
2
72
6
73
3
74
0
42
0.000000001
43
0.0000000001
44
0.0000000001
40
0
40
0
40
0
40
1
40
1
40
1
10
5.4812018014471775
20
93.188269007778231
30
0
10
6.2792936898749119
20
93.188269007778231
30
0
10
6.6067186929266697
20
93.471351731395785
30
0
0
SPLINE
5
156
100
AcDbEntity
8
0
100
AcDbSpline
70
0
71
2
72
6
73
3
74
0
42
0.000000001
43
0.0000000001
44
0.0000000001
40
0
40
0
40
0
40
1
40
1
40
1
10
7.9368654824774509
20
96.360164750194599
30
0
10
9.0146319009344822
20
96.100956070995409
30
0
10
9.5228163339178806
20
95.469987261867587
30
0
0
SPLINE
5
157
100
AcDbEntity
8
0
100
AcDbSpline
70
0
71
2
72
6
73
3
74
0
42
0.000000001
43
0.0000000001
44
0.0000000001
40
0
40
0
40
0
40
1
40
1
40
1
10
9.0146319009344822
20
97.028651106929843
30
0
10
8.6462751962225681
20
96.605731118297641
30
0
10
7.9368654824774509
20
96.360164750194599
30
0
0
SPLINE
5
158
100
AcDbEntity
8
0
100
AcDbSpline
70
0
71
2
72
6
73
3
74
0
42
0.000000001
43
0.0000000001
44
0.0000000001
40
0
40
0
40
0
40
1
40
1
40
1
10
6.2554232217352643
20
98.768077362155964
30
0
10
5.9723345376532322
20
99.013643730259005
30
0
10
5.2697435952704197
20
99.013643730259005
30
0
0
SPLINE
5
159
100
AcDbEntity
8
0
100
AcDbSpline
70
0
71
2
72
6
73
3
74
0
42
0.000000001
43
0.0000000001
44
0.0000000001
40
0
40
0
40
0
40
1
40
1
40
1
10
9.669472370294832
20
92.485676873302523
30
0
10
9.3079439736883867
20
91.864939797496859
30
0
10
8.6803881265204197
20
91.503411400890414
30
0
0
SPLINE
5
160
100
AcDbEntity
8
0
100
AcDbSpline
70
0
71
2
72
6
73
3
74
0
42
0.000000001
43
0.0000000001
44
0.0000000001
40
0
40
0
40
0
40
1
40
1
40
1
10
7.5071207620184666
20
91.175989974117343
30
0
10
6.4634672738592869
20
91.039564478969638
30
0
10
6.1224047280829197
20
91.039564478969638
30
0
0
SPLINE
5
161
100
AcDbEntity
8
0
100
AcDbSpline
70
0
71
2
72
6
73
3
74
0
42
0.000000001
43
0.0000000001
44
0.0000000001
40
0
40
0
40
0
40
1
40
1
40
1
10
17.984606418756748
20
93.829468358135287
30
0
10
18.530308399347568
20
94.477490056133306
30
0
10
18.530308399347568
20
96.155526507473056
30
0
0
SPLINE
5
162
100
AcDbEntity
8
0
100
AcDbSpline
70
0
71
2
72
6
73
3
74
0
42
0.000000001
43
0.0000000001
44
0.0000000001
40
0
40
0
40
0
40
1
40
1
40
1
10
11.947771701959873
20
93.113233912563402
30
0
10
11.25881830230167
20
94.279672968959872
30
0
10
11.25881830230167
20
96.032742131328646
30
0
0
SPLINE
5
163
100
AcDbEntity
8
0
100
AcDbSpline
70
0
71
2
72
6
73
3
74
0
42
0.000000001
43
0.0000000001
44
0.0000000001
40
0
40
0
40
0
40
1
40
1
40
1
10
17.960726413873935
20
98.218963611698214
30
0
10
17.391153965143467
20
98.870396483516771
30
0
10
16.415707264093662
20
98.870396483516771
30
0
0
LWPOLYLINE
5
164
100
AcDbEntity
8
0
100
AcDbPolyline
90
4
70
1
43
0.0
10
33.134676609186435
20
91.039564478969638
10
36.231543216852458
20
91.039564478969638
10
36.231543216852458
20
101.03956447896964
10
33.134676609186435
20
101.03956447896964
0
SPLINE
5
165
100
AcDbEntity
8
0
100
AcDbSpline
70
0
71
2
72
6
73
3
74
0
42
0.000000001
43
0.0000000001
44
0.0000000001
40
0
40
0
40
0
40
1
40
1
40
1
10
16.545311603693275
20
90.869032013988573
30
0
10
14.853636417536045
20
90.869032013988573
30
0
10
13.745171222833896
20
91.407914031124193
30
0
0
LINE
5
166
100
AcDbEntity
8
0
100
AcDbLine
10
3.9054838754217869
20
95.214189160442416
30
0
11
3.9054838754217869
21
93.188269007778231
31
0
0
SPLINE
5
167
100
AcDbEntity
8
0
100
AcDbSpline
70
0
71
2
72
6
73
3
74
0
42
0.000000001
43
0.0000000001
44
0.0000000001
40
0
40
0
40
0
40
1
40
1
40
1
10
16.442991886286045
20
93.18144666013724
30
0
10
17.438904438165928
20
93.18144666013724
30
0
10
17.984606418756748
20
93.829468358135287
30
0
0
SPLINE
5
168
100
AcDbEntity
8
0
100
AcDbSpline
70
0
71
2
72
6
73
3
74
0
42
0.000000001
43
0.0000000001
44
0.0000000001
40
0
40
0
40
0
40
1
40
1
40
1
10
6.6101233102362409
20
94.944748747921054
30
0
10
6.2861124612372166
20
95.214189160442416
30
0
10
5.4743830300848728
20
95.214189160442416
30
0
0
SPLINE
5
169
100
AcDbEntity
8
0
100
AcDbSpline
70
0
71
2
72
6
73
3
74
0
42
0.000000001
43
0.0000000001
44
0.0000000001
40
0
40
0
40
0
40
1
40
1
40
1
10
20.269734058527256
20
99.869714248752643
30
0
10
21.620346698908115
20
98.529332149601046
30
0
10
21.620346698908115
20
96.114598382091586
30
0
0
SPLINE
5
170
100
AcDbEntity
8
0
100
AcDbSpline
70
0
71
2
72
6
73
3
74
0
42
0.000000001
43
0.0000000001
44
0.0000000001
40
0
40
0
40
0
40
1
40
1
40
1
10
19.324986133722568
20
91.493179667568285
30
0
10
18.209702167658115
20
90.869032013988573
30
0
10
16.545311603693275
20
90.869032013988573
30
0
0
SPLINE
5
171
100
AcDbEntity
8
0
100
AcDbSpline
70
0
71
2
72
6
73
3
74
0
42
0.000000001
43
0.0000000001
44
0.0000000001
40
0
40
0
40
0
40
1
40
1
40
1
10
16.415707264093662
20
98.870396483516771
30
0
10
15.481192264704013
20
98.870396483516771
30
0
10
14.915024433283115
20
98.208731878376085
30
0
0
LINE
5
172
100
AcDbEntity
8
0
100
AcDbLine
10
5.4743830300848728
20
95.214189160442416
30
0
11
3.9054838754217869
21
95.214189160442416
31
0
0
SPLINE
5
173
100
AcDbEntity
8
0
100
AcDbSpline
70
0
71
2
72
6
73
3
74
0
42
0.000000001
43
0.0000000001
44
0.0000000001
40
0
40
0
40
0
40
1
40
1
40
1
10
16.422526035455967
20
101.21009575185782
30
0
10
18.9191214181464
20
101.21009575185782
30
0
10
20.269734058527256
20
99.869714248752643
30
0
0
SPLINE
5
174
100
AcDbEntity
8
0
100
AcDbSpline
70
0
71
2
72
6
73
3
74
0
42
0.000000001
43
0.0000000001
44
0.0000000001
40
0
40
0
40
0
40
1
40
1
40
1
10
14.911619815973545
20
93.843111861324374
30
0
10
15.474373493341709
20
93.18144666013724
30
0
10
16.442991886286045
20
93.18144666013724
30
0
0
SPLINE
5
175
100
AcDbEntity
8
0
100
AcDbSpline
70
0
71
2
72
6
73
3
74
0
42
0.000000001
43
0.0000000001
44
0.0000000001
40
0
40
0
40
0
40
1
40
1
40
1
10
12.623078022150304
20
99.845839608287875
30
0
10
13.987328205255773
20
101.21009575185782
30
0
10
16.422526035455967
20
101.21009575185782
30
0
0
SPLINE
5
176
100
AcDbEntity
8
0
100
AcDbSpline
70
0
71
2
72
6
73
3
74
0
42
0.000000001
43
0.0000000001
44
0.0000000001
40
0
40
0
40
0
40
1
40
1
40
1
10
11.25881830230167
20
96.032742131328646
30
0
10
11.25881830230167
20
98.481582868671495
30
0
10
12.623078022150304
20
99.845839608287875
30
0
0
SPLINE
5
177
100
AcDbEntity
8
0
100
AcDbSpline
70
0
71
2
72
6
73
3
74
0
42
0.000000001
43
0.0000000001
44
0.0000000001
40
0
40
0
40
0
40
1
40
1
40
1
10
13.745171222833896
20
91.407914031124193
30
0
10
12.636715564874912
20
91.946794856166903
30
0
10
11.947771701959873
20
93.113233912563402
30
0
0
LWPOLYLINE
5
178
100
AcDbEntity
8
0
100
AcDbPolyline
90
8
70
1
43
0.0
10
25.37206331267765
20
98.570260274982516
10
25.37206331267765
20
91.039564478969638
10
28.462101612238197
20
91.039564478969638
10
28.462101612238197
20
98.570260274982516
10
31.613537464288971
20
98.570260274982516
10
31.613537464288971
20
101.03956447896964
10
22.220627460626865
20
101.03956447896964
10
22.220627460626865
20
98.570260274982516
0
SPLINE
5
179
100
AcDbEntity
8
0
100
AcDbSpline
70
0
71
2
72
6
73
3
74
0
42
0.000000001
43
0.0000000001
44
0.0000000001
40
0
40
0
40
0
40
1
40
1
40
1
10
14.348856601862217
20
96.019099820232441
30
0
10
14.348856601862217
20
94.504775870418584
30
0
10
14.911619815973545
20
93.843111861324374
30
0
0
SPLINE
5
180
100
AcDbEntity
8
0
100
AcDbSpline
70
0
71
2
72
6
73
3
74
0
42
0.000000001
43
0.0000000001
44
0.0000000001
40
0
40
0
40
0
40
1
40
1
40
1
10
21.030308399347568
20
93.239427674388963
30
0
10
20.440260563043857
20
92.117327321147982
30
0
10
19.324986133722568
20
91.493179667568285
30
0
0
SPLINE
5
181
100
AcDbEntity
8
0
100
AcDbSpline
70
0
71
2
72
6
73
3
74
0
42
0.000000001
43
0.0000000001
44
0.0000000001
40
0
40
0
40
0
40
1
40
1
40
1
10
14.915024433283115
20
98.208731878376085
30
0
10
14.348856601862217
20
97.547067273235385
30
0
10
14.348856601862217
20
96.019099820232441
30
0
0
SPLINE
5
182
100
AcDbEntity
8
0
100
AcDbSpline
70
0
71
2
72
6
73
3
74
0
42
0.000000001
43
0.0000000001
44
0.0000000001
40
0
40
0
40
0
40
1
40
1
40
1
10
21.620346698908115
20
96.114598382091586
30
0
10
21.620346698908115
20
94.361529219722811
30
0
10
21.030308399347568
20
93.239427674388963
30
0
0
SPLINE
5
183
100
AcDbEntity
8
0
100
AcDbSpline
70
0
71
2
72
6
73
3
74
0
42
0.000000001
43
0.0000000001
44
0.0000000001
40
0
40
0
40
0
40
1
40
1
40
1
10
18.530308399347568
20
96.155526507473056
30
0
10
18.530308399347568
20
97.567531931972567
30
0
10
17.960726413873935
20
98.218963611698214
30
0
0
SPLINE
5
184
100
AcDbEntity
8
0
100
AcDbSpline
70
0
71
2
72
6
73
3
74
0
42
0.000000001
43
0.0000000001
44
0.0000000001
40
0
40
0
40
0
40
1
40
1
40
1
10
6.9341341592352643
20
94.231924880123202
30
0
10
6.9341341592352643
20
94.675308335399691
30
0
10
6.6101233102362409
20
94.944748747921054
30
0
0
LINE
5
185
100
AcDbEntity
8
0
100
AcDbLine
10
45.106035862116116
20
95.132334101772372
30
0
11
47.814089450983317
21
94.313779938793246
31
0
0
SPLINE
5
186
100
AcDbEntity
8
0
100
AcDbSpline
70
0
71
2
72
6
73
3
74
0
42
0.000000001
43
0.0000000001
44
0.0000000001
40
0
40
0
40
0
40
1
40
1
40
1
10
45.498263034967692
20
91.257845032787387
30
0
10
44.628550205377849
20
90.869032013988573
30
0
10
43.284756336359294
20
90.869032013988573
30
0
0
SPLINE
5
187
100
AcDbEntity
8
0
100
AcDbSpline
70
0
71
2
72
6
73
3
74
0
42
0.000000001
43
0.0000000001
44
0.0000000001
40
0
40
0
40
0
40
1
40
1
40
1
10
44.055554065851467
20
98.706685174083773
30
0
10
43.680388126520427
20
98.89768110570914
30
0
10
43.216540012506741
20
98.89768110570914
30
0
0
SPLINE
5
188
100
AcDbEntity
8
0
100
AcDbSpline
70
0
71
2
72
6
73
3
74
0
42
0.000000001
43
0.0000000001
44
0.0000000001
40
0
40
0
40
0
40
1
40
1
40
1
10
46.954600010065349
20
92.410641778087694
30
0
10
46.367975864557536
20
91.646658051586215
30
0
10
45.498263034967692
20
91.257845032787387
30
0
0
SPLINE
5
189
100
AcDbEntity
8
0
100
AcDbSpline
70
0
71
2
72
6
73
3
74
0
42
0.000000001
43
0.0000000001
44
0.0000000001
40
0
40
0
40
0
40
1
40
1
40
1
10
38.086935672907131
20
96.063438523387958
30
0
10
38.086935672907131
20
98.544679749584276
30
0
10
39.406849537042888
20
99.877387750721056
30
0
0
SPLINE
5
190
100
AcDbEntity
8
0
100
AcDbSpline
70
0
71
2
72
6
73
3
74
0
42
0.000000001
43
0.0000000001
44
0.0000000001
40
0
40
0
40
0
40
1
40
1
40
1
10
44.990069065241116
20
97.492496836757724
30
0
10
44.846827182916897
20
97.949523199176852
30
0
10
44.689938221124905
20
98.160983193492953
30
0
0
SPLINE
5
191
100
AcDbEntity
8
0
100
AcDbSpline
70
0
71
2
72
6
73
3
74
0
42
0.000000001
43
0.0000000001
44
0.0000000001
40
0
40
0
40
0
40
1
40
1
40
1
10
44.689938221124905
20
98.160983193492953
30
0
10
44.430729541925686
20
98.515689838504855
30
0
10
44.055554065851467
20
98.706685174083773
30
0
0
SPLINE
5
192
100
AcDbEntity
8
0
100
AcDbSpline
70
0
71
2
72
6
73
3
74
0
42
0.000000001
43
0.0000000001
44
0.0000000001
40
0
40
0
40
0
40
1
40
1
40
1
10
41.606718692926677
20
98.052801359272067
30
0
10
41.183802280573147
20
97.425989974117343
30
0
10
41.183802280573147
20
96.083903182125155
30
0
0
SPLINE
5
193
100
AcDbEntity
8
0
100
AcDbSpline
70
0
71
2
72
6
73
3
74
0
42
0.000000001
43
0.0000000001
44
0.0000000001
40
0
40
0
40
0
40
1
40
1
40
1
10
46.112171802667888
20
100.4461126214028
30
0
10
47.193342838434475
20
99.682128894901325
30
0
10
47.718588504938396
20
98.09959160146721
30
0
0
SPLINE
5
194
100
AcDbEntity
8
0
100
AcDbSpline
70
0
71
2
72
6
73
3
74
0
42
0.000000001
43
0.0000000001
44
0.0000000001
40
0
40
0
40
0
40
1
40
1
40
1
10
43.284756336359294
20
90.869032013988573
30
0
10
41.654469165949138
20
90.869032013988573
30
0
10
40.621039066461833
20
91.342792380428349
30
0
0
SPLINE
5
195
100
AcDbEntity
8
0
100
AcDbSpline
70
0
71
2
72
6
73
3
74
0
42
0.000000001
43
0.0000000001
44
0.0000000001
40
0
40
0
40
0
40
1
40
1
40
1
10
38.837277088312405
20
93.009476531124193
30
0
10
38.086935672907131
20
94.202401507473056
30
0
10
38.086935672907131
20
96.063438523387958
30
0
0
SPLINE
5
196
100
AcDbEntity
8
0
100
AcDbSpline
70
0
71
2
72
6
73
3
74
0
42
0.000000001
43
0.0000000001
44
0.0000000001
40
0
40
0
40
0
40
1
40
1
40
1
10
39.406849537042888
20
99.877387750721056
30
0
10
40.72677293792178
20
101.21009575185782
30
0
10
43.141504917291911
20
101.21009575185782
30
0
0
SPLINE
5
197
100
AcDbEntity
8
0
100
AcDbSpline
70
0
71
2
72
6
73
3
74
0
42
0.000000001
43
0.0000000001
44
0.0000000001
40
0
40
0
40
0
40
1
40
1
40
1
10
47.814089450983317
20
94.313779938793246
30
0
10
47.541233692316325
20
93.174625504589144
30
0
10
46.954600010065349
20
92.410641778087694
30
0
0
SPLINE
5
198
100
AcDbEntity
8
0
100
AcDbSpline
70
0
71
2
72
6
73
3
74
0
42
0.000000001
43
0.0000000001
44
0.0000000001
40
0
40
0
40
0
40
1
40
1
40
1
10
40.621039066461833
20
91.342792380428349
30
0
10
39.587618503717692
20
91.816551554775302
30
0
10
38.837277088312405
20
93.009476531124193
30
0
0
SPLINE
5
199
100
AcDbEntity
8
0
100
AcDbSpline
70
0
71
2
72
6
73
3
74
0
42
0.000000001
43
0.0000000001
44
0.0000000001
40
0
40
0
40
0
40
1
40
1
40
1
10
43.141504917291911
20
101.21009575185782
30
0
10
45.031000766901286
20
101.21009575185782
30
0
10
46.112171802667888
20
100.4461126214028
30
0
0
LINE
5
200
100
AcDbEntity
8
0
100
AcDbLine
10
47.718588504938396
20
98.09959160146721
30
0
11
44.990069065241116
21
97.492496836757724
31
0
0
SPLINE
5
201
100
AcDbEntity
8
0
100
AcDbSpline
70
0
71
2
72
6
73
3
74
0
42
0.000000001
43
0.0000000001
44
0.0000000001
40
0
40
0
40
0
40
1
40
1
40
1
10
44.447781238703044
20
93.686221707439486
30
0
10
44.901396427301677
20
94.184175599193651
30
0
10
45.106035862116116
20
95.132334101772372
30
0
0
LWPOLYLINE
5
202
100
AcDbEntity
8
0
100
AcDbPolyline
90
8
70
1
43
0.0
10
56.613423023371013
20
92.690315116024081
10
60.121590290216716
20
92.690315116024081
10
60.621887836603435
20
91.039564478969638
10
63.857733402399333
20
91.039564478969638
10
60.100065860895427
20
101.03956447896964
10
56.729494724420817
20
101.03956447896964
10
52.970968876032146
20
91.039564478969638
10
56.126028690485263
20
91.039564478969638
0
LINE
5
203
100
AcDbEntity
8
0
100
AcDbLine
10
64.880930576471599
20
101.03956447896964
30
0
11
70.031000766901286
21
101.03956447896964
31
0
0
SPLINE
5
204
100
AcDbEntity
8
0
100
AcDbSpline
70
0
71
2
72
6
73
3
74
0
42
0.000000001
43
0.0000000001
44
0.0000000001
40
0
40
0
40
0
40
1
40
1
40
1
10
41.183802280573147
20
96.083903182125155
30
0
10
41.183802280573147
20
94.421428311443407
30
0
10
41.688572559503811
20
93.804848063564364
30
0
0
SPLINE
5
205
100
AcDbEntity
8
0
100
AcDbSpline
70
0
71
2
72
6
73
3
74
0
42
0.000000001
43
0.0000000001
44
0.0000000001
40
0
40
0
40
0
40
1
40
1
40
1
10
43.107401523737224
20
93.188267815685307
30
0
10
43.994166050104397
20
93.188267815685307
30
0
10
44.447781238703044
20
93.686221707439486
30
0
0
LWPOLYLINE
5
206
100
AcDbEntity
8
0
100
AcDbPolyline
90
3
70
1
43
0.0
10
58.376833591608317
20
98.447477090931002
10
59.480606708673747
20
94.852661955928866
10
57.284580860285068
20
94.852661955928866
0
SPLINE
5
207
100
AcDbEntity
8
0
100
AcDbSpline
70
0
71
2
72
6
73
3
74
0
42
0.000000001
43
0.0000000001
44
0.0000000001
40
0
40
0
40
0
40
1
40
1
40
1
10
41.688572559503811
20
93.804848063564364
30
0
10
42.193342838434475
20
93.188267815685307
30
0
10
43.107401523737224
20
93.188267815685307
30
0
0
SPLINE
5
208
100
AcDbEntity
8
0
100
AcDbSpline
70
0
71
2
72
6
73
3
74
0
42
0.000000001
43
0.0000000001
44
0.0000000001
40
0
40
0
40
0
40
1
40
1
40
1
10
70.031000766901286
20
101.03956447896964
30
0
10
71.46345773711613
20
101.03956447896964
30
0
10
72.220636997370036
20
100.7939981108666
30
0
0
SPLINE
5
209
100
AcDbEntity
8
0
100
AcDbSpline
70
0
71
2
72
6
73
3
74
0
42
0.000000001
43
0.0000000001
44
0.0000000001
40
0
40
0
40
0
40
1
40
1
40
1
10
73.441645298151286
20
99.883357155895297
30
0
10
73.905493412164958
20
99.218281972980563
30
0
10
73.905493412164958
20
98.263302314853732
30
0
0
SPLINE
5
210
100
AcDbEntity
8
0
100
AcDbSpline
70
0
71
2
72
6
73
3
74
0
42
0.000000001
43
0.0000000001
44
0.0000000001
40
0
40
0
40
0
40
1
40
1
40
1
10
73.905493412164958
20
98.263302314853732
30
0
10
73.905493412164958
20
97.431106436824862
30
0
10
73.550573978571208
20
96.827423441982319
30
0
0
SPLINE
5
211
100
AcDbEntity
8
0
100
AcDbSpline
70
0
71
2
72
6
73
3
74
0
42
0.000000001
43
0.0000000001
44
0.0000000001
40
0
40
0
40
0
40
1
40
1
40
1
10
43.216540012506741
20
98.89768110570914
30
0
10
42.166058216242092
20
98.89768110570914
30
0
10
41.606718692926677
20
98.052801359272067
30
0
0
SPLINE
5
212
100
AcDbEntity
8
0
100
AcDbSpline
70
0
71
2
72
6
73
3
74
0
42
0.000000001
43
0.0000000001
44
0.0000000001
40
0
40
0
40
0
40
1
40
1
40
1
10
73.550573978571208
20
96.827423441982319
30
0
10
73.195654544977458
20
96.223739255046922
30
0
10
72.574583683161052
20
95.848568547344286
30
0
0
SPLINE
5
213
100
AcDbEntity
8
0
100
AcDbSpline
70
0
71
2
72
6
73
3
74
0
42
0.000000001
43
0.0000000001
44
0.0000000001
40
0
40
0
40
0
40
1
40
1
40
1
10
72.574583683161052
20
95.848568547344286
30
0
10
72.178751621393474
20
95.609823334789354
30
0
10
71.489359531549724
20
95.452934372997348
30
0
0
SPLINE
5
214
100
AcDbEntity
8
0
100
AcDbSpline
70
0
71
2
72
6
73
3
74
0
42
0.000000001
43
0.0000000001
44
0.0000000001
40
0
40
0
40
0
40
1
40
1
40
1
10
72.220636997370036
20
100.7939981108666
30
0
10
72.977797184137614
20
100.54843233881004
30
0
10
73.441645298151286
20
99.883357155895297
30
0
0
SPLINE
5
215
100
AcDbEntity
8
0
100
AcDbSpline
70
0
71
2
72
6
73
3
74
0
42
0.000000001
43
0.0000000001
44
0.0000000001
40
0
40
0
40
0
40
1
40
1
40
1
10
71.489359531549724
20
95.452934372997348
30
0
10
72.04146066680363
20
95.268546212291781
30
0
10
72.293745670465739
20
95.084265339946811
30
0
0
SPLINE
5
216
100
AcDbEntity
8
0
100
AcDbSpline
70
0
71
2
72
6
73
3
74
0
42
0.000000001
43
0.0000000001
44
0.0000000001
40
0
40
0
40
0
40
1
40
1
40
1
10
72.787977848200114
20
94.558546412563402
30
0
10
73.111769352106364
20
94.155717957592088
30
0
10
73.220793399957927
20
93.937224019146043
30
0
0
LINE
5
217
100
AcDbEntity
8
0
100
AcDbLine
10
64.880930576471599
20
91.039564478969638
30
0
11
64.880930576471599
21
101.03956447896964
31
0
0
LINE
5
218
100
AcDbEntity
8
0
100
AcDbLine
10
71.225687656549724
20
91.039564478969638
30
0
11
69.573961887506755
21
94.095499384975497
31
0
0
LWPOLYLINE
5
219
100
AcDbEntity
8
0
100
AcDbPolyline
90
10
70
1
43
0.0
10
-61.016074027868008
20
81.339700091457431
10
-63.901477660985684
20
81.339700091457431
10
-63.901477660985684
20
71.339700091457431
10
-60.995610561223721
20
71.339700091457431
10
-60.995610561223721
20
76.830406058406908
10
-57.250727023931248
20
71.339700091457431
10
-54.338038768621182
20
71.339700091457431
10
-54.338038768621182
20
81.339700091457431
10
-57.250727023931248
20
81.339700091457431
10
-57.250727023931248
20
75.80721365270621
0
LINE
5
220
100
AcDbEntity
8
0
100
AcDbLine
10
67.984615955499919
20
99.020464885807101
30
0
11
67.984615955499919
21
96.987722981548373
31
0
0
LINE
5
221
100
AcDbEntity
8
0
100
AcDbLine
10
67.984615955499919
20
95.098227131938998
30
0
11
67.984615955499919
21
91.039564478969638
31
0
0
LINE
5
222
100
AcDbEntity
8
0
100
AcDbLine
10
67.984615955499919
20
91.039564478969638
30
0
11
64.880930576471599
21
91.039564478969638
31
0
0
LINE
5
223
100
AcDbEntity
8
0
100
AcDbLine
10
69.342047367243083
20
99.020464885807101
30
0
11
67.984615955499919
21
99.020464885807101
31
0
0
LINE
5
224
100
AcDbEntity
8
0
100
AcDbLine
10
74.717222843317302
20
91.039564478969638
30
0
11
71.225687656549724
21
91.039564478969638
31
0
0
LWPOLYLINE
5
225
100
AcDbEntity
8
0
100
AcDbPolyline
90
13
70
1
43
0.0
10
84.389788303522394
20
91.039564478969638
10
86.920496616510675
20
91.039564478969638
10
86.920496616510675
20
101.03956447896964
10
82.859160099176691
20
101.03956447896964
10
81.303164158014582
20
94.954980481243211
10
79.735972080377849
20
101.03956447896964
10
75.672194156793864
20
101.03956447896964
10
75.672194156793864
20
91.039564478969638
10
78.202883396295817
20
91.039564478969638
10
78.202883396295817
20
98.665758240795213
10
80.149199161676691
20
91.039564478969638
10
82.439867649225519
20
91.039564478969638
10
84.389788303522394
20
98.665758240795213
0
SPLINE
5
226
100
AcDbEntity
8
0
100
AcDbSpline
70
0
71
2
72
6
73
3
74
0
42
0.000000001
43
0.0000000001
44
0.0000000001
40
0
40
0
40
0
40
1
40
1
40
1
10
70.801798496393474
20
98.017736542797167
30
0
10
70.801798496393474
20
98.502047527408664
30
0
10
70.494848880914958
20
98.761256206607882
30
0
0
LWPOLYLINE
5
227
100
AcDbEntity
8
0
100
AcDbPolyline
90
8
70
1
43
0.0
10
-49.781530704351162
20
72.990450728511874
10
-46.273368205877034
20
72.990450728511874
10
-45.773070659490315
20
71.339700091457431
10
-42.537220325322842
20
71.339700091457431
10
-46.294892635198323
20
81.339700091457431
10
-49.66546377167294
20
81.339700091457431
10
-53.423989620061612
20
71.339700091457431
10
-50.268929805608494
20
71.339700091457431
0
LINE
5
228
100
AcDbEntity
8
0
100
AcDbLine
10
67.984615955499919
20
96.987722981548373
30
0
11
69.287478122858317
21
96.987722981548373
31
0
0
LINE
5
229
100
AcDbEntity
8
0
100
AcDbLine
10
68.257462177423747
20
95.098227131938998
30
0
11
67.984615955499919
21
95.098227131938998
31
0
0
SPLINE
5
230
100
AcDbEntity
8
0
100
AcDbSpline
70
0
71
2
72
6
73
3
74
0
42
0.000000001
43
0.0000000001
44
0.0000000001
40
0
40
0
40
0
40
1
40
1
40
1
10
70.10603586211613
20
97.124148476696092
30
0
10
70.413004551080974
20
97.185540068721849
30
0
10
70.607401523737224
20
97.437927592372958
30
0
0
SPLINE
5
231
100
AcDbEntity
8
0
100
AcDbSpline
70
0
71
2
72
6
73
3
74
0
42
0.000000001
43
0.0000000001
44
0.0000000001
40
0
40
0
40
0
40
1
40
1
40
1
10
70.607401523737224
20
97.437927592372958
30
0
10
70.801798496393474
20
97.690315116024081
30
0
10
70.801798496393474
20
98.017736542797167
30
0
0
LINE
5
232
100
AcDbEntity
8
0
100
AcDbLine
10
73.220793399957927
20
93.937224019146043
30
0
11
74.717222843317302
21
91.039564478969638
31
0
0
SPLINE
5
233
100
AcDbEntity
8
0
100
AcDbSpline
70
0
71
2
72
6
73
3
74
0
42
0.000000001
43
0.0000000001
44
0.0000000001
40
0
40
0
40
0
40
1
40
1
40
1
10
69.573961887506755
20
94.095499384975497
30
0
10
69.260203037409099
20
94.688950646495883
30
0
10
69.014631900934489
20
94.866304267025072
30
0
0
SPLINE
5
234
100
AcDbEntity
8
0
100
AcDbSpline
70
0
71
2
72
6
73
3
74
0
42
0.000000001
43
0.0000000001
44
0.0000000001
40
0
40
0
40
0
40
1
40
1
40
1
10
69.287478122858317
20
96.987722981548373
30
0
10
69.498926792291911
20
96.987722981548373
30
0
10
70.10603586211613
20
97.124148476696092
30
0
0
SPLINE
5
235
100
AcDbEntity
8
0
100
AcDbSpline
70
0
71
2
72
6
73
3
74
0
42
0.000000001
43
0.0000000001
44
0.0000000001
40
0
40
0
40
0
40
1
40
1
40
1
10
70.494848880914958
20
98.761256206607882
30
0
10
70.187899265436442
20
99.020464885807101
30
0
10
69.342047367243083
20
99.020464885807101
30
0
0
SPLINE
5
236
100
AcDbEntity
8
0
100
AcDbSpline
70
0
71
2
72
6
73
3
74
0
42
0.000000001
43
0.0000000001
44
0.0000000001
40
0
40
0
40
0
40
1
40
1
40
1
10
69.014631900934489
20
94.866304267025072
30
0
10
68.680388126520427
20
95.098227131938998
30
0
10
68.257462177423747
20
95.098227131938998
30
0
0
SPLINE
5
237
100
AcDbEntity
8
0
100
AcDbSpline
70
0
71
2
72
6
73
3
74
0
42
0.000000001
43
0.0000000001
44
0.0000000001
40
0
40
0
40
0
40
1
40
1
40
1
10
72.293745670465739
20
95.084265339946811
30
0
10
72.464167270807536
20
94.961376059627597
30
0
10
72.787977848200114
20
94.558546412563402
30
0
0
LWPOLYLINE
5
238
100
AcDbEntity
8
0
100
AcDbPolyline
90
3
70
1
43
0.0
10
-23.96628221497128
20
78.747613299465243
10
-22.862513866277428
20
75.152797568416673
10
-25.058539714666104
20
75.152797568416673
0
LWPOLYLINE
5
239
100
AcDbEntity
8
0
100
AcDbPolyline
90
13
70
1
43
0.0
10
-34.821389522405354
20
71.339700091457431
10
-32.871459331365315
20
78.965895045375873
10
-32.871459331365315
20
71.339700091457431
10
-30.340765323491787
20
71.339700091457431
10
-30.340765323491787
20
81.339700091457431
10
-34.402092304082608
20
81.339700091457431
10
-35.958093013616292
20
75.255114901638095
10
-37.525280322881436
20
81.339700091457431
10
-41.589063014836995
20
81.339700091457431
10
-41.589063014836995
20
71.339700091457431
10
-39.058364238591892
20
71.339700091457431
10
-39.058364238591892
20
78.965895045375873
10
-37.112058009954183
20
71.339700091457431
0
LWPOLYLINE
5
240
100
AcDbEntity
8
0
100
AcDbPolyline
90
3
70
1
43
0.0
10
-49.110377635808682
20
75.152797568416673
10
-48.01812490448544
20
78.747613299465243
10
-46.914351787420003
20
75.152797568416673
0
LWPOLYLINE
5
241
100
AcDbEntity
8
0
100
AcDbPolyline
90
10
70
1
43
0.0
10
-14.597242679448819
20
81.339700091457431
10
-17.482646312566494
20
81.339700091457431
10
-17.482646312566494
20
71.339700091457431
10
-14.576781596990322
20
71.339700091457431
10
-14.576781596990322
20
76.830406058406908
10
-10.831898059697842
20
71.339700091457431
10
-7.9192098043877834
20
71.339700091457431
10
-7.9192098043877834
20
81.339700091457431
10
-10.831898059697842
20
81.339700091457431
10
-10.831898059697842
20
75.80721365270621
0
LWPOLYLINE
5
242
100
AcDbEntity
8
0
100
AcDbPolyline
90
8
70
1
43
0.0
10
-22.243054714055752
20
81.339700091457431
10
-25.61362108215878
20
81.339700091457431
10
-29.372146930547451
20
71.339700091457431
10
-26.217091884465908
20
71.339700091457431
10
-25.729688014837002
20
72.990450728511874
10
-22.221525516362878
20
72.990450728511874
10
-21.721227969976159
20
71.339700091457431
10
-18.485382404180264
20
71.339700091457431
0
LWPOLYLINE
5
243
100
AcDbEntity
8
0
100
AcDbPolyline
90
8
70
1
43
0.0
10
7.4832407571356541
20
78.870396483516757
10
7.4832407571356541
20
81.339700091457431
10
-1.9096597097832912
20
81.339700091457431
10
-1.9096597097832912
20
78.870396483516757
10
1.2417666055243259
20
78.870396483516757
10
1.2417666055243259
20
71.339700091457431
10
4.3318144418280369
20
71.339700091457431
10
4.3318144418280369
20
78.870396483516757
0
LWPOLYLINE
5
244
100
AcDbEntity
8
0
100
AcDbPolyline
90
8
70
1
43
0.0
10
10.57318368926456
20
72.990450728511874
10
14.081341419367099
20
72.990450728511874
10
14.581638965753818
20
71.339700091457431
10
17.817484531549717
20
71.339700091457431
10
14.05981699004581
20
81.339700091457431
10
10.689245853571199
20
81.339700091457431
10
6.9307200051825291
20
71.339700091457431
10
10.085779819635654
20
71.339700091457431
0
LWPOLYLINE
5
245
100
AcDbEntity
8
0
100
AcDbPolyline
90
3
70
1
43
0.0
10
11.244322452692296
20
75.152797568416673
10
12.336584720758701
20
78.747613299465243
10
13.440348301080967
20
75.152797568416673
0
LWPOLYLINE
5
246
100
AcDbEntity
8
0
100
AcDbPolyline
90
13
70
1
43
0.0
10
31.631647739557533
20
71.339700091457431
10
34.661795292047771
20
71.339700091457431
10
36.408888492731364
20
77.635743487453524
10
38.162810001520427
20
71.339700091457431
10
41.192957554010661
20
71.339700091457431
10
43.397299442438396
20
81.339700091457431
10
40.477568302301677
20
81.339700091457431
10
39.419733677057536
20
75.748913157558505
10
37.869383487848552
20
81.339700091457431
10
34.944979343561435
20
81.339700091457431
10
33.398462925104411
20
75.741453040218417
10
32.341810856012614
20
81.339700091457431
10
29.40684000029972
20
81.339700091457431
0
LWPOLYLINE
5
247
100
AcDbEntity
8
0
100
AcDbPolyline
90
10
70
1
43
0.0
10
21.705614719538001
20
81.339700091457431
10
18.820215854791908
20
81.339700091457431
10
18.820215854791908
20
71.339700091457431
10
21.726080570368079
20
71.339700091457431
10
21.726080570368079
20
76.830406058406908
10
25.470968876032138
20
71.339700091457431
10
28.383642826227451
20
71.339700091457431
10
28.383642826227451
20
81.339700091457431
10
25.470968876032138
20
81.339700091457431
10
25.470968876032138
20
75.80721365270621
0
LWPOLYLINE
5
248
100
AcDbEntity
8
0
100
AcDbPolyline
90
8
70
1
43
0.0
10
46.559187564996975
20
71.339700091457431
10
47.046572361139567
20
72.990450728511874
10
50.554739627985263
20
72.990450728511874
10
51.055037174371982
20
71.339700091457431
10
54.290892276911052
20
71.339700091457431
10
50.533224735407146
20
81.339700091457431
10
47.162653598932536
20
81.339700091457431
10
43.40412775054385
20
71.339700091457431
0
SPLINE
5
249
100
AcDbEntity
8
0
100
AcDbSpline
70
0
71
2
72
6
73
3
74
0
42
0.000000001
43
0.0000000001
44
0.0000000001
40
0
40
0
40
0
40
1
40
1
40
1
10
60.464140567926677
20
81.339700091457431
30
0
10
61.896616611627849
20
81.339700091457431
30
0
10
62.653776798395427
20
81.094133723354403
30
0
0
LWPOLYLINE
5
250
100
AcDbEntity
8
0
100
AcDbPolyline
90
3
70
1
43
0.0
10
47.717730198053616
20
75.152797568416673
10
48.809992466120029
20
78.747613299465243
10
49.913756046442302
20
75.152797568416673
0
SPLINE
5
251
100
AcDbEntity
8
0
100
AcDbSpline
70
0
71
2
72
6
73
3
74
0
42
0.000000001
43
0.0000000001
44
0.0000000001
40
0
40
0
40
0
40
1
40
1
40
1
10
63.983713779596599
20
77.127559054470112
30
0
10
63.628794346002849
20
76.523873675441806
30
0
10
63.007742557672763
20
76.148702967739197
30
0
0
SPLINE
5
252
100
AcDbEntity
8
0
100
AcDbSpline
70
0
71
2
72
6
73
3
74
0
42
0.000000001
43
0.0000000001
44
0.0000000001
40
0
40
0
40
0
40
1
40
1
40
1
10
64.338633213190349
20
78.563437331295063
30
0
10
64.338633213190349
20
77.731242049312655
30
0
10
63.983713779596599
20
77.127559054470112
30
0
0
LINE
5
253
100
AcDbEntity
8
0
100
AcDbLine
10
61.658827457575114
20
71.339700091457431
30
0
11
60.007120762018474
21
74.39563499746329
31
0
0
SPLINE
5
254
100
AcDbEntity
8
0
100
AcDbSpline
70
0
71
2
72
6
73
3
74
0
42
0.000000001
43
0.0000000001
44
0.0000000001
40
0
40
0
40
0
40
1
40
1
40
1
10
61.922518406061442
20
75.753068793392245
30
0
10
62.474600467829013
20
75.56868301687247
30
0
10
62.726885471491123
20
75.384399760341708
30
0
0
LINE
5
255
100
AcDbEntity
8
0
100
AcDbLine
10
63.653952274469646
20
74.237358439540941
30
0
11
65.150362644342692
21
71.339700091457431
31
0
0
SPLINE
5
256
100
AcDbEntity
8
0
100
AcDbSpline
70
0
71
2
72
6
73
3
74
0
42
0.000000001
43
0.0000000001
44
0.0000000001
40
0
40
0
40
0
40
1
40
1
40
1
10
63.874785099176677
20
80.183493960475985
30
0
10
64.338633213190349
20
79.518418181514804
30
0
10
64.338633213190349
20
78.563437331295063
30
0
0
SPLINE
5
257
100
AcDbEntity
8
0
100
AcDbSpline
70
0
71
2
72
6
73
3
74
0
42
0.000000001
43
0.0000000001
44
0.0000000001
40
0
40
0
40
0
40
1
40
1
40
1
10
63.007742557672763
20
76.148702967739197
30
0
10
62.611891422418864
20
75.909960139370014
30
0
10
61.922518406061442
20
75.753068793392245
30
0
0
LINE
5
258
100
AcDbEntity
8
0
100
AcDbLine
10
55.314070377496982
20
81.339700091457431
30
0
11
60.464140567926677
21
81.339700091457431
31
0
0
SPLINE
5
259
100
AcDbEntity
8
0
100
AcDbSpline
70
0
71
2
72
6
73
3
74
0
42
0.000000001
43
0.0000000001
44
0.0000000001
40
0
40
0
40
0
40
1
40
1
40
1
10
63.221117649225505
20
74.858682025051181
30
0
10
63.544909153131755
20
74.455854762172763
30
0
10
63.653952274469646
20
74.237358439540941
30
0
0
SPLINE
5
260
100
AcDbEntity
8
0
100
AcDbSpline
70
0
71
2
72
6
73
3
74
0
42
0.000000001
43
0.0000000001
44
0.0000000001
40
0
40
0
40
0
40
1
40
1
40
1
10
62.653776798395427
20
81.094133723354403
30
0
10
63.410936985163005
20
80.848567355251376
30
0
10
63.874785099176677
20
80.183493960475985
30
0
0
SPLINE
5
261
100
AcDbEntity
8
0
100
AcDbSpline
70
0
71
2
72
6
73
3
74
0
42
0.000000001
43
0.0000000001
44
0.0000000001
40
0
40
0
40
0
40
1
40
1
40
1
10
62.726885471491123
20
75.384399760341708
30
0
10
62.897307071832927
20
75.26151167211539
30
0
10
63.221117649225505
20
74.858682025051181
30
0
0
LINE
5
262
100
AcDbEntity
8
0
100
AcDbLine
10
55.314070377496982
20
71.339700091457431
30
0
11
55.314070377496982
21
81.339700091457431
31
0
0
LINE
5
263
100
AcDbEntity
8
0
100
AcDbLine
10
65.150362644342692
20
71.339700091457431
30
0
11
61.658827457575114
21
71.339700091457431
31
0
0
SPLINE
5
264
100
AcDbEntity
8
0
100
AcDbSpline
70
0
71
2
72
6
73
3
74
0
42
0.000000001
43
0.0000000001
44
0.0000000001
40
0
40
0
40
0
40
1
40
1
40
1
10
-8.1545384787041897
20
96.019099820232441
30
0
10
-8.1545384787041897
20
94.504775870418584
30
0
10
-7.5917943380791897
20
93.843111861324374
30
0
0
SPLINE
5
265
100
AcDbEntity
8
0
100
AcDbSpline
70
0
71
2
72
6
73
3
74
0
42
0.000000001
43
0.0000000001
44
0.0000000001
40
0
40
0
40
0
40
1
40
1
40
1
10
-8.7582333944756741
20
91.407914031124193
30
0
10
-9.8666890524346584
20
91.946794856166903
30
0
10
-10.555642452092863
20
93.113233912563402
30
0
0
LWPOLYLINE
5
266
100
AcDbEntity
8
0
100
AcDbPolyline
90
13
70
1
43
0.0
10
-84.177736844869344
20
98.665758240795213
10
-82.231433000417439
20
91.039564478969638
10
-79.940760936589925
20
91.039564478969638
10
-77.990833129735663
20
98.665758240795213
10
-77.990833129735663
20
91.039564478969638
10
-75.460137929769246
20
91.039564478969638
10
-75.460137929769246
20
101.03956447896964
10
-79.521464910360066
20
101.03956447896964
10
-81.077463235707967
20
94.954980481243211
10
-82.644653525205342
20
101.03956447896964
10
-86.708432640882222
20
101.03956447896964
10
-86.708432640882222
20
91.039564478969638
10
-84.177736844869344
20
91.039564478969638
0
LINE
5
267
100
AcDbEntity
8
0
100
AcDbLine
10
108.44695596927636
20
23.59328462116537
30
0
11
108.44695596927636
21
121.30081909194899
31
0
0
LINE
5
268
100
AcDbEntity
8
0
100
AcDbLine
10
58.417765293268474
20
71.339700091457431
30
0
11
55.314070377496982
21
71.339700091457431
31
0
0
SPLINE
5
269
100
AcDbEntity
8
0
100
AcDbSpline
70
0
71
2
72
6
73
3
74
0
42
0.000000001
43
0.0000000001
44
0.0000000001
40
0
40
0
40
0
40
1
40
1
40
1
10
60.539175663141513
20
77.424285281276767
30
0
10
60.846144352106364
20
77.485675681209628
30
0
10
61.040541324762614
20
77.738063204860751
30
0
0
SPLINE
5
270
100
AcDbEntity
8
0
100
AcDbSpline
70
0
71
2
72
6
73
3
74
0
42
0.000000001
43
0.0000000001
44
0.0000000001
40
0
40
0
40
0
40
1
40
1
40
1
10
59.720617923883708
20
77.28785740194327
30
0
10
59.932085666803623
20
77.28785740194327
30
0
10
60.539175663141513
20
77.424285281276767
30
0
0
LINE
5
271
100
AcDbEntity
8
0
100
AcDbLine
10
-109.96613019580502
20
121.30081909194899
30
0
11
-109.96613019580501
21
23.593284621165367
31
0
0
LINE
5
272
100
AcDbEntity
8
0
100
AcDbLine
10
-109.96613019580501
20
23.593284621165367
30
0
11
108.44695596927636
21
23.59328462116537
31
0
0
SPLINE
5
273
100
AcDbEntity
8
0
100
AcDbSpline
70
0
71
2
72
6
73
3
74
0
42
0.000000001
43
0.0000000001
44
0.0000000001
40
0
40
0
40
0
40
1
40
1
40
1
10
61.234957370905192
20
78.317873347377841
30
0
10
61.234957370905192
20
78.802182543850009
30
0
10
60.927988681940349
20
79.061391223049228
30
0
0
SPLINE
5
274
100
AcDbEntity
8
0
100
AcDbSpline
70
0
71
2
72
6
73
3
74
0
42
0.000000001
43
0.0000000001
44
0.0000000001
40
0
40
0
40
0
40
1
40
1
40
1
10
-7.5917943380791897
20
93.843111861324374
30
0
10
-7.0290311239678616
20
93.18144666013724
30
0
10
-6.0604127310235256
20
93.18144666013724
30
0
0
LINE
5
275
100
AcDbEntity
8
0
100
AcDbLine
10
109.66599999999958
20
116.40081909194896
30
8.2902156317729178e-45
11
109.66599999999958
21
121.30081909194897
31
1.7763568394002501e-14
0
SPLINE
5
276
100
AcDbEntity
8
0
100
AcDbSpline
70
0
71
2
72
6
73
3
74
0
42
0.000000001
43
0.0000000001
44
0.0000000001
40
0
40
0
40
0
40
1
40
1
40
1
10
59.447771701959873
20
75.166439879512851
30
0
10
59.113527927545817
20
75.398363936519686
30
0
10
58.690611515192302
20
75.398363936519686
30
0
0
SPLINE
5
277
100
AcDbEntity
8
0
100
AcDbSpline
70
0
71
2
72
6
73
3
74
0
42
0.000000001
43
0.0000000001
44
0.0000000001
40
0
40
0
40
0
40
1
40
1
40
1
10
-5.9580930136162991
20
90.869032013988573
30
0
10
-7.6497681997735256
20
90.869032013988573
30
0
10
-8.7582333944756741
20
91.407914031124193
30
0
0
CIRCLE
5
278
100
AcDbEntity
8
0
100
AcDbCircle
10
-0.15123540455356022
20
113.13644954464372
30
0
40
2.4999999999999991
210
0
220
0
230
1
0
SPLINE
5
279
100
AcDbEntity
8
0
100
AcDbSpline
70
0
71
2
72
6
73
3
74
0
42
0.000000001
43
0.0000000001
44
0.0000000001
40
0
40
0
40
0
40
1
40
1
40
1
10
60.007120762018474
20
74.39563499746329
30
0
10
59.693342838434482
20
74.989087451076571
30
0
10
59.447771701959873
20
75.166439879512851
30
0
0
LINE
5
280
100
AcDbEntity
8
0
100
AcDbLine
10
-109.96613019580502
20
121.30081909194899
30
0
11
-109.96613019580502
21
116.40081909194896
31
0
0
LINE
5
281
100
AcDbEntity
8
0
100
AcDbLine
10
58.417765293268474
20
75.398363936519686
30
0
11
58.417765293268474
21
71.339700091457431
31
0
0
LINE
5
282
100
AcDbEntity
8
0
100
AcDbLine
10
58.690611515192302
20
75.398363936519686
30
0
11
58.417765293268474
21
75.398363936519686
31
0
0
CIRCLE
5
283
100
AcDbEntity
8
0
100
AcDbCircle
10
13.517404391779262
20
58.175471709019043
30
1.0525244912728827e-45
40
8.5
210
0
220
0
230
1
0
LINE
5
284
100
AcDbEntity
8
0
100
AcDbLine
10
58.417765293268474
20
79.320599902248446
30
0
11
58.417765293268474
21
77.28785740194327
31
0
0
LINE
5
285
100
AcDbEntity
8
0
100
AcDbLine
10
58.417765293268474
20
77.28785740194327
30
0
11
59.720617923883708
21
77.28785740194327
31
0
0
SPLINE
5
286
100
AcDbEntity
8
0
100
AcDbSpline
70
0
71
2
72
6
73
3
74
0
42
0.000000001
43
0.0000000001
44
0.0000000001
40
0
40
0
40
0
40
1
40
1
40
1
10
-3.1784184835870022
20
91.493179667568285
30
0
10
-4.2937024496514553
20
90.869032013988573
30
0
10
-5.9580930136162991
20
90.869032013988573
30
0
0
SPLINE
5
287
100
AcDbEntity
8
0
100
AcDbSpline
70
0
71
2
72
6
73
3
74
0
42
0.000000001
43
0.0000000001
44
0.0000000001
40
0
40
0
40
0
40
1
40
1
40
1
10
-10.555642452092863
20
93.113233912563402
30
0
10
-11.244586315007901
20
94.279672968959872
30
0
10
-11.244586315007901
20
96.032742131328646
30
0
0
SPLINE
5
288
100
AcDbEntity
8
0
100
AcDbSpline
70
0
71
2
72
6
73
3
74
0
42
0.000000001
43
0.0000000001
44
0.0000000001
40
0
40
0
40
0
40
1
40
1
40
1
10
61.040541324762614
20
77.738063204860751
30
0
10
61.234957370905192
20
77.990450728511874
30
0
10
61.234957370905192
20
78.317873347377841
30
0
0
SPLINE
5
289
100
AcDbEntity
8
0
100
AcDbSpline
70
0
71
2
72
6
73
3
74
0
42
0.000000001
43
0.0000000001
44
0.0000000001
40
0
40
0
40
0
40
1
40
1
40
1
10
-4.5187981985528234
20
93.829468358135287
30
0
10
-3.9730962179620022
20
94.477490056133306
30
0
10
-3.9730962179620022
20
96.155526507473056
30
0
0
LINE
5
290
100
AcDbEntity
8
0
100
AcDbLine
10
109.66599999999958
20
121.30081909194897
30
1.7763568394002501e-14
11
-109.96613019580502
21
121.30081909194899
31
0
0
LINE
5
291
100
AcDbEntity
8
0
100
AcDbLine
10
59.775187168268474
20
79.320599902248446
30
0
11
58.417765293268474
21
79.320599902248446
31
0
0
CIRCLE
5
292
100
AcDbEntity
8
0
100
AcDbCircle
10
-100.42874276280669
20
32.792596587394712
30
0
40
2.4999999999999991
210
0
220
0
230
1
0
SPLINE
5
293
100
AcDbEntity
8
0
100
AcDbSpline
70
0
71
2
72
6
73
3
74
0
42
0.000000001
43
0.0000000001
44
0.0000000001
40
0
40
0
40
0
40
1
40
1
40
1
10
-6.0604127310235256
20
93.18144666013724
30
0
10
-5.0645001791436428
20
93.18144666013724
30
0
10
-4.5187981985528234
20
93.829468358135287
30
0
0
SPLINE
5
294
100
AcDbEntity
8
0
100
AcDbSpline
70
0
71
2
72
6
73
3
74
0
42
0.000000001
43
0.0000000001
44
0.0000000001
40
0
40
0
40
0
40
1
40
1
40
1
10
60.927988681940349
20
79.061391223049228
30
0
10
60.621039066461833
20
79.320599902248446
30
0
10
59.775187168268474
20
79.320599902248446
30
0
0
SPLINE
5
295
100
AcDbEntity
8
0
100
AcDbSpline
70
0
71
2
72
6
73
3
74
0
42
0.000000001
43
0.0000000001
44
0.0000000001
40
0
40
0
40
0
40
1
40
1
40
1
10
-68.713889922948567
20
101.21009575185782
30
0
10
-66.21729930862972
20
101.21009575185782
30
0
10
-64.86668666824886
20
99.869714248752643
30
0
0
SPLINE
5
296
100
AcDbEntity
8
0
100
AcDbSpline
70
0
71
2
72
6
73
3
74
0
42
0.000000001
43
0.0000000001
44
0.0000000001
40
0
40
0
40
0
40
1
40
1
40
1
10
-68.69342645630428
20
93.18144666013724
30
0
10
-67.697518672795979
20
93.18144666013724
30
0
10
-67.151816692205159
20
93.829468358135287
30
0
0
SPLINE
5
297
100
AcDbEntity
8
0
100
AcDbSpline
70
0
71
2
72
6
73
3
74
0
42
0.000000001
43
0.0000000001
44
0.0000000001
40
0
40
0
40
0
40
1
40
1
40
1
10
-63.516071643682224
20
96.114598382091586
30
0
10
-63.516071643682224
20
94.361529219722811
30
0
10
-64.106112327428548
20
93.239427674388963
30
0
0
CIRCLE
5
298
100
AcDbEntity
8
0
100
AcDbCircle
10
-0.15123540455356022
20
32.792596587394712
30
0
40
2.4999999999999991
210
0
220
0
230
1
0
CIRCLE
5
299
100
AcDbEntity
8
0
100
AcDbCircle
10
-100.42874276280669
20
113.13644954464372
30
0
40
2.4999999999999991
210
0
220
0
230
1
0
SPLINE
5
300
100
AcDbEntity
8
0
100
AcDbSpline
70
0
71
2
72
6
73
3
74
0
42
0.000000001
43
0.0000000001
44
0.0000000001
40
0
40
0
40
0
40
1
40
1
40
1
10
-73.877600040288655
20
96.032742131328646
30
0
10
-73.877600040288655
20
98.481582868671495
30
0
10
-72.513343896718723
20
99.845839608287875
30
0
0
SPLINE
5
301
100
AcDbEntity
8
0
100
AcDbSpline
70
0
71
2
72
6
73
3
74
0
42
0.000000001
43
0.0000000001
44
0.0000000001
40
0
40
0
40
0
40
1
40
1
40
1
10
-64.86668666824886
20
99.869714248752643
30
0
10
-63.516071643682224
20
98.529332149601046
30
0
10
-63.516071643682224
20
96.114598382091586
30
0
0
CIRCLE
5
302
100
AcDbEntity
8
0
100
AcDbCircle
10
100.12627195369959
20
32.792596587394712
30
0
40
2.4999999999999991
210
0
220
0
230
1
0
SPLINE
5
303
100
AcDbEntity
8
0
100
AcDbSpline
70
0
71
2
72
6
73
3
74
0
42
0.000000001
43
0.0000000001
44
0.0000000001
40
0
40
0
40
0
40
1
40
1
40
1
10
-64.106112327428548
20
93.239427674388963
30
0
10
-64.696153011174886
20
92.117327321147982
30
0
10
-65.811432208867757
20
91.493179667568285
30
0
0
SPLINE
5
304
100
AcDbEntity
8
0
100
AcDbSpline
70
0
71
2
72
6
73
3
74
0
42
0.000000001
43
0.0000000001
44
0.0000000001
40
0
40
0
40
0
40
1
40
1
40
1
10
-68.591106738897068
20
90.869032013988573
30
0
10
-70.282784309240071
20
90.869032013988573
30
0
10
-71.391242351384847
20
91.407914031124193
30
0
0
LINE
5
305
100
AcDbEntity
8
0
100
AcDbLine
10
108.44695596927636
20
121.30081909194899
30
0
11
-109.96613019580502
21
121.30081909194899
31
0
0
CIRCLE
5
306
100
AcDbEntity
8
0
100
AcDbCircle
10
-12.475821956541758
20
58.284427404685459
30
-4.5703542807517977e-45
40
8.5
210
0
220
0
230
1
0
CIRCLE
5
307
100
AcDbEntity
8
0
100
AcDbCircle
10
100.12627195369959
20
113.13644954464372
30
0
40
2.4999999999999991
210
0
220
0
230
1
0
SPLINE
5
308
100
AcDbEntity
8
0
100
AcDbSpline
70
0
71
2
72
6
73
3
74
0
42
0.000000001
43
0.0000000001
44
0.0000000001
40
0
40
0
40
0
40
1
40
1
40
1
10
-72.513343896718723
20
99.845839608287875
30
0
10
-71.149087753148763
20
101.21009575185782
30
0
10
-68.713889922948567
20
101.21009575185782
30
0
0
SPLINE
5
309
100
AcDbEntity
8
0
100
AcDbSpline
70
0
71
2
72
6
73
3
74
0
42
0.000000001
43
0.0000000001
44
0.0000000001
40
0
40
0
40
0
40
1
40
1
40
1
10
-65.811432208867757
20
91.493179667568285
30
0
10
-66.926713790746419
20
90.869032013988573
30
0
10
-68.591106738897068
20
90.869032013988573
30
0
0
SPLINE
5
310
100
AcDbEntity
8
0
100
AcDbSpline
70
0
71
2
72
6
73
3
74
0
42
0.000000001
43
0.0000000001
44
0.0000000001
40
0
40
0
40
0
40
1
40
1
40
1
10
-73.188650216909167
20
93.113233912563402
30
0
10
-73.877600040288655
20
94.279672968959872
30
0
10
-73.877600040288655
20
96.032742131328646
30
0
0
SPLINE
5
311
100
AcDbEntity
8
0
100
AcDbSpline
70
0
71
2
72
6
73
3
74
0
42
0.000000001
43
0.0000000001
44
0.0000000001
40
0
40
0
40
0
40
1
40
1
40
1
10
-71.391242351384847
20
91.407914031124193
30
0
10
-72.499700393529622
20
91.946794856166903
30
0
10
-73.188650216909167
20
93.113233912563402
30
0
0
SPLINE
5
312
100
AcDbEntity
8
0
100
AcDbSpline
70
0
71
2
72
6
73
3
74
0
42
0.000000001
43
0.0000000001
44
0.0000000001
40
0
40
0
40
0
40
1
40
1
40
1
10
-66.606112327428548
20
96.155526507473056
30
0
10
-66.606112327428548
20
97.567531931972567
30
0
10
-67.175689544530599
20
98.218963611698214
30
0
0
SPLINE
5
313
100
AcDbEntity
8
0
100
AcDbSpline
70
0
71
2
72
6
73
3
74
0
42
0.000000001
43
0.0000000001
44
0.0000000001
40
0
40
0
40
0
40
1
40
1
40
1
10
-54.696153011174893
20
96.360164750194599
30
0
10
-53.618391361089444
20
96.100956070995409
30
0
10
-53.110204543920261
20
95.469987261867587
30
0
0
SPLINE
5
314
100
AcDbEntity
8
0
100
AcDbSpline
70
0
71
2
72
6
73
3
74
0
42
0.000000001
43
0.0000000001
44
0.0000000001
40
0
40
0
40
0
40
1
40
1
40
1
10
-53.065865840764744
20
98.549796212291781
30
0
10
-53.065865840764744
20
97.663030493831698
30
0
10
-53.618391361089444
20
97.028651106929843
30
0
0
SPLINE
5
315
100
AcDbEntity
8
0
100
AcDbSpline
70
0
71
2
72
6
73
3
74
0
42
0.000000001
43
0.0000000001
44
0.0000000001
40
0
40
0
40
0
40
1
40
1
40
1
10
-70.22139390930721
20
98.208731878376085
30
0
10
-70.787559356542317
20
97.547067273235385
30
0
10
-70.787559356542317
20
96.019099820232441
30
0
0
LINE
5
316
100
AcDbEntity
8
0
100
AcDbLine
10
-61.844857539983494
20
101.03956447896964
30
0
11
-56.060410346837742
21
101.03956447896964
31
0
0
LINE
5
317
100
AcDbEntity
8
0
100
AcDbLine
10
-56.510613765569424
20
91.039564478969638
30
0
11
-61.844857539983494
21
91.039564478969638
31
0
0
SPLINE
5
318
100
AcDbEntity
8
0
100
AcDbSpline
70
0
71
2
72
6
73
3
74
0
42
0.000000001
43
0.0000000001
44
0.0000000001
40
0
40
0
40
0
40
1
40
1
40
1
10
-56.377600040288662
20
97.366304267025072
30
0
10
-56.094516124578213
20
97.615280020809237
30
0
10
-56.094516124578213
20
98.085949290371005
30
0
0
LINE
5
319
100
AcDbEntity
8
0
100
AcDbLine
10
-58.727532234044773
20
97.117327321147982
30
0
11
-57.383738365026211
21
97.117327321147982
31
0
0
SPLINE
5
320
100
AcDbEntity
8
0
100
AcDbSpline
70
0
71
2
72
6
73
3
74
0
42
0.000000001
43
0.0000000001
44
0.0000000001
40
0
40
0
40
0
40
1
40
1
40
1
10
-57.151814308019382
20
93.188269007778231
30
0
10
-56.353724803777432
20
93.188269007778231
30
0
10
-56.026304569097263
20
93.471351731395785
30
0
0
LINE
5
321
100
AcDbEntity
8
0
100
AcDbLine
10
-58.727532234044773
20
99.013643730259005
30
0
11
-58.727532234044773
21
97.117327321147982
31
0
0
SPLINE
5
322
100
AcDbEntity
8
0
100
AcDbSpline
70
0
71
2
72
6
73
3
74
0
42
0.000000001
43
0.0000000001
44
0.0000000001
40
0
40
0
40
0
40
1
40
1
40
1
10
-67.151816692205159
20
93.829468358135287
30
0
10
-66.606112327428548
20
94.477490056133306
30
0
10
-66.606112327428548
20
96.155526507473056
30
0
0
LINE
5
323
100
AcDbEntity
8
0
100
AcDbLine
10
-58.727532234044773
20
93.188269007778231
30
0
11
-57.151814308019382
21
93.188269007778231
31
0
0
SPLINE
5
324
100
AcDbEntity
8
0
100
AcDbSpline
70
0
71
2
72
6
73
3
74
0
42
0.000000001
43
0.0000000001
44
0.0000000001
40
0
40
0
40
0
40
1
40
1
40
1
10
-68.720711078496663
20
98.870396483516771
30
0
10
-69.655226077886311
20
98.870396483516771
30
0
10
-70.22139390930721
20
98.208731878376085
30
0
0
SPLINE
5
325
100
AcDbEntity
8
0
100
AcDbSpline
70
0
71
2
72
6
73
3
74
0
42
0.000000001
43
0.0000000001
44
0.0000000001
40
0
40
0
40
0
40
1
40
1
40
1
10
-70.787559356542317
20
96.019099820232441
30
0
10
-70.787559356542317
20
94.504775870418584
30
0
10
-70.224803294988362
20
93.843111861324374
30
0
0
LINE
5
326
100
AcDbEntity
8
0
100
AcDbLine
10
-61.844857539983494
20
91.039564478969638
30
0
11
-61.844857539983494
21
101.03956447896964
31
0
0
SPLINE
5
327
100
AcDbEntity
8
0
100
AcDbSpline
70
0
71
2
72
6
73
3
74
0
42
0.000000001
43
0.0000000001
44
0.0000000001
40
0
40
0
40
0
40
1
40
1
40
1
10
-55.125892963262302
20
91.175989974117343
30
0
10
-56.169551219793064
20
91.039564478969638
30
0
10
-56.510613765569424
20
91.039564478969638
30
0
0
SPLINE
5
328
100
AcDbEntity
8
0
100
AcDbSpline
70
0
71
2
72
6
73
3
74
0
42
0.000000001
43
0.0000000001
44
0.0000000001
40
0
40
0
40
0
40
1
40
1
40
1
10
-56.377600040288662
20
98.768077362155964
30
0
10
-56.660683955999112
20
99.013643730259005
30
0
10
-57.363274898381924
20
99.013643730259005
30
0
0
LINE
5
329
100
AcDbEntity
8
0
100
AcDbLine
10
-57.363274898381924
20
99.013643730259005
30
0
11
-58.727532234044773
21
99.013643730259005
31
0
0
SPLINE
5
330
100
AcDbEntity
8
0
100
AcDbSpline
70
0
71
2
72
6
73
3
74
0
42
0.000000001
43
0.0000000001
44
0.0000000001
40
0
40
0
40
0
40
1
40
1
40
1
10
-53.840082492681248
20
100.32333003339774
30
0
10
-53.065865840764744
20
99.607094991779405
30
0
10
-53.065865840764744
20
98.549796212291781
30
0
0
SPLINE
5
331
100
AcDbEntity
8
0
100
AcDbSpline
70
0
71
2
72
6
73
3
74
0
42
0.000000001
43
0.0000000001
44
0.0000000001
40
0
40
0
40
0
40
1
40
1
40
1
10
-52.602020110936863
20
93.884038794612962
30
0
10
-52.602020110936863
20
93.106412757015292
30
0
10
-52.963548507543301
20
92.485676873302523
30
0
0
SPLINE
5
332
100
AcDbEntity
8
0
100
AcDbSpline
70
0
71
2
72
6
73
3
74
0
42
0.000000001
43
0.0000000001
44
0.0000000001
40
0
40
0
40
0
40
1
40
1
40
1
10
-56.094516124578213
20
98.085949290371005
30
0
10
-56.094516124578213
20
98.522511590099413
30
0
10
-56.377600040288662
20
98.768077362155964
30
0
0
SPLINE
5
333
100
AcDbEntity
8
0
100
AcDbSpline
70
0
71
2
72
6
73
3
74
0
42
0.000000001
43
0.0000000001
44
0.0000000001
40
0
40
0
40
0
40
1
40
1
40
1
10
-70.224803294988362
20
93.843111861324374
30
0
10
-69.662047233434407
20
93.18144666013724
30
0
10
-68.69342645630428
20
93.18144666013724
30
0
0
SPLINE
5
334
100
AcDbEntity
8
0
100
AcDbSpline
70
0
71
2
72
6
73
3
74
0
42
0.000000001
43
0.0000000001
44
0.0000000001
40
0
40
0
40
0
40
1
40
1
40
1
10
-53.952635135503513
20
91.503411400890414
30
0
10
-54.341448154302341
20
91.278309691524584
30
0
10
-55.125892963262302
20
91.175989974117343
30
0
0
SPLINE
5
335
100
AcDbEntity
8
0
100
AcDbSpline
70
0
71
2
72
6
73
3
74
0
42
0.000000001
43
0.0000000001
44
0.0000000001
40
0
40
0
40
0
40
1
40
1
40
1
10
-53.110204543920261
20
95.469987261867587
30
0
10
-52.602020110936863
20
94.839018452739779
30
0
10
-52.602020110936863
20
93.884038794612962
30
0
0
SPLINE
5
336
100
AcDbEntity
8
0
100
AcDbSpline
70
0
71
2
72
6
73
3
74
0
42
0.000000001
43
0.0000000001
44
0.0000000001
40
0
40
0
40
0
40
1
40
1
40
1
10
-53.618391361089444
20
97.028651106929843
30
0
10
-53.986740913243992
20
96.605731118297641
30
0
10
-54.696153011174893
20
96.360164750194599
30
0
0
SPLINE
5
337
100
AcDbEntity
8
0
100
AcDbSpline
70
0
71
2
72
6
73
3
74
0
42
0.000000001
43
0.0000000001
44
0.0000000001
40
0
40
0
40
0
40
1
40
1
40
1
10
-52.963548507543301
20
92.485676873302523
30
0
10
-53.325074519963962
20
91.864939797496859
30
0
10
-53.952635135503513
20
91.503411400890414
30
0
0
SPLINE
5
338
100
AcDbEntity
8
0
100
AcDbSpline
70
0
71
2
72
6
73
3
74
0
42
0.000000001
43
0.0000000001
44
0.0000000001
40
0
40
0
40
0
40
1
40
1
40
1
10
-57.383738365026211
20
97.117327321147982
30
0
10
-56.660683955999112
20
97.117327321147982
30
0
10
-56.377600040288662
20
97.366304267025072
30
0
0
SPLINE
5
339
100
AcDbEntity
8
0
100
AcDbSpline
70
0
71
2
72
6
73
3
74
0
42
0.000000001
43
0.0000000001
44
0.0000000001
40
0
40
0
40
0
40
1
40
1
40
1
10
-56.026304569097263
20
93.471351731395785
30
0
10
-55.698881950231289
20
93.75443445501331
30
0
10
-55.698881950231289
20
94.231924880123202
30
0
0
LINE
5
340
100
AcDbEntity
8
0
100
AcDbLine
10
-57.158635463567471
20
95.214189160442416
30
0
11
-58.727532234044773
21
95.214189160442416
31
0
0
SPLINE
5
341
100
AcDbEntity
8
0
100
AcDbSpline
70
0
71
2
72
6
73
3
74
0
42
0.000000001
43
0.0000000001
44
0.0000000001
40
0
40
0
40
0
40
1
40
1
40
1
10
-56.060410346837742
20
101.03956447896964
30
0
10
-54.614299144597744
20
101.03956447896964
30
0
10
-53.840082492681248
20
100.32333003339774
30
0
0
SPLINE
5
342
100
AcDbEntity
8
0
100
AcDbSpline
70
0
71
2
72
6
73
3
74
0
42
0.000000001
43
0.0000000001
44
0.0000000001
40
0
40
0
40
0
40
1
40
1
40
1
10
-67.175689544530599
20
98.218963611698214
30
0
10
-67.745266761632649
20
98.870396483516771
30
0
10
-68.720711078496663
20
98.870396483516771
30
0
0
SPLINE
5
343
100
AcDbEntity
8
0
100
AcDbSpline
70
0
71
2
72
6
73
3
74
0
42
0.000000001
43
0.0000000001
44
0.0000000001
40
0
40
0
40
0
40
1
40
1
40
1
10
-56.022892799230313
20
94.944748747921054
30
0
10
-56.346903648229343
20
95.214189160442416
30
0
10
-57.158635463567471
20
95.214189160442416
30
0
0
LINE
5
344
100
AcDbEntity
8
0
100
AcDbLine
10
-21.442402210088467
20
101.03956447896964
30
0
11
-16.29233201965878
21
101.03956447896964
31
0
0
LINE
5
345
100
AcDbEntity
8
0
100
AcDbLine
10
-58.727532234044773
20
95.214189160442416
30
0
11
-58.727532234044773
21
93.188269007778231
31
0
0
SPLINE
5
346
100
AcDbEntity
8
0
100
AcDbSpline
70
0
71
2
72
6
73
3
74
0
42
0.000000001
43
0.0000000001
44
0.0000000001
40
0
40
0
40
0
40
1
40
1
40
1
10
-16.29233201965878
20
101.03956447896964
30
0
10
-14.859865512700772
20
101.03956447896964
30
0
10
-14.102700557561612
20
100.7939981108666
30
0
0
SPLINE
5
347
100
AcDbEntity
8
0
100
AcDbSpline
70
0
71
2
72
6
73
3
74
0
42
0.000000001
43
0.0000000001
44
0.0000000001
40
0
40
0
40
0
40
1
40
1
40
1
10
-55.698881950231289
20
94.231924880123202
30
0
10
-55.698881950231289
20
94.675308335399691
30
0
10
-56.022892799230313
20
94.944748747921054
30
0
0
ENDSEC
0
SECTION
2
OBJECTS
0
DICTIONARY
5
C
100
AcDbDictionary
3
ACAD_GROUP
350
D
3
ACAD_MLINESTYLE
350
17
0
DICTIONARY
5
D
100
AcDbDictionary
0
DICTIONARY
5
1A
330
C
100
AcDbDictionary
0
DICTIONARY
5
17
100
AcDbDictionary
0
ENDSEC
0
EOF
